<?xml version="1.0" standalone="no"?>
<!DOCTYPE svg PUBLIC "-//W3C//DTD SVG 20010904//EN"
 "http://www.w3.org/TR/2001/REC-SVG-20010904/DTD/svg10.dtd">
<svg version="1.0" xmlns="http://www.w3.org/2000/svg"
 width="96.000000pt" height="96.000000pt" viewBox="0 0 96.000000 96.000000"
 preserveAspectRatio="xMidYMid meet">
<metadata>
Created by potrace 1.14, written by Peter Selinger 2001-2017
</metadata>
<g transform="translate(0.000000,96.000000) scale(0.100000,-0.100000)"
fill="#000000" stroke="none">
<path d="M40 670 l0 -250 293 -2 292 -3 1 -25 c1 -22 11 -167 19 -275 1 -22 3
-52 4 -67 1 -28 2 -28 71 -28 60 0 70 3 71 18 0 9 3 37 5 62 2 25 6 67 8 94 3
39 9 54 30 69 24 17 26 25 26 88 l0 69 40 0 40 0 0 250 0 250 -450 0 -450 0 0
-250z"/>
</g>
</svg>
